# xmcd
#
# Track frame offsets: 
#        150
#        38205
#        65430
#        83880
#        113805
#        140580
#        166155
#        193455
#
# Disc length: 2686 seconds
#
# Revision: 2
# Processed by: cddbd v1.5.2PL0 Copyright (c) Steve Scherf et al.
# Submitted via: ExactAudioCopy v0.95a4
#
DISCID=6f0a7c08
DTITLE=Catalin - First Breath
DYEAR=1999
DGENRE=New Age
TTITLE0=Opening (First Breath)
TTITLE1=Zulu Spirits Call
TTITLE2=Iceburg
TTITLE3=Synthetic History
TTITLE4=Nandana
TTITLE5=Cross Faded Memories
TTITLE6=Treasures of the Deep
TTITLE7=Postlude
EXTD=
EXTT0=
EXTT1=
EXTT2=
EXTT3=
EXTT4=
EXTT5=
EXTT6=
EXTT7=
PLAYORDER=
